# xmcd CD database file
#
# Track frame offsets:
#	150
#	20044
#	42085
#	69610
#	92819
#	118387
#	151903
#	160011
#	188439
#	191492
#
# Disc length: 3079 seconds
#
# Revision: 4
# Processed by: cddbd v1.5.2PL0 Copyright (c) Steve Scherf et al.
# Submitted via: CDex 1.70beta2
#
DISCID=7d0c050a
DTITLE=Pink Floyd - A Momentary Lapse of Reason
DYEAR=1987
DGENRE=Psychedelic Rock
TTITLE0=Signs of Life (Instrumental)
TTITLE1=Learning To Fly
TTITLE2=The Dogs of War
TTITLE3=One Slip
TTITLE4=On The Turning Away
TTITLE5=a) Yet Another Movie b) Round and Around
TTITLE6=A New Machine (Part I)
TTITLE7=Terminal Frost
TTITLE8=A New Machine (Part II)
TTITLE9=Sorrow
EXTD=YEAR: 1987
EXTT0=
EXTT1=
EXTT2=
EXTT3=
EXTT4=
EXTT5=
EXTT6=
EXTT7=
EXTT8=
EXTT9=
PLAYORDER=
